# xmcd CD database file
#
# Track frame offsets:
#	150
#	13040
#	25094
#	37916
#	51716
#	64298
#	76183
#	89682
#	104392
#	117811
#	123842
#	138783
#	151914
#	164822
#	177651
#	189628
#	201607
#
# Disc length: 2859 seconds
#
# Revision: 0
# Processed by: cddbd v1.5.2PL0 Copyright (c) Steve Scherf et al.
# Submitted via: CDex 1.70beta2
#
DISCID=f10b2911
DTITLE=Various Artist - Country Roots - CD 6
DYEAR=2007
DGENRE=Country Classics
TTITLE0=Roy Acuff - Jole Blon
TTITLE1=Bob Wills And His And His Texas Play Boys - Neath Hawaiian Palms
TTITLE2=The Carter Family - Keep On The Sunny Side
TTITLE3=Red Foley And Ernest Tubb - You're A Real Good Friend
TTITLE4=Hank Williams - I Just Don't Like This Kind Of Living
TTITLE5=Gene Autry - Blueberry Hill
TTITLE6=The Carter Family - Forsaken Love
TTITLE7=Gene Autry - Ghostriders In The Sky
TTITLE8=Merle Travis - So Round So Firm So Fully Packed
TTITLE9=Gene Autry - Ride Ranger Ride
TTITLE10=The Carter Family - No Telephone To Heaven
TTITLE11=Kitty Wells And Red Foley - One By One
TTITLE12=Roy Acuff - Tennessee Waltz
TTITLE13=Red Foley - Freight Train Boogie
TTITLE14=Bob Wills - Teke Me Back To Tulsa
TTITLE15=Roy Acuff - Sinner's Death (I'm Dying)
TTITLE16=Hank Williams - On The Banks Of The Old Pontchartrain
EXTD=YEAR: 2007
EXTT0=
EXTT1=
EXTT2=
EXTT3=
EXTT4=
EXTT5=
EXTT6=
EXTT7=
EXTT8=
EXTT9=
EXTT10=
EXTT11=
EXTT12=
EXTT13=
EXTT14=
EXTT15=
EXTT16=
PLAYORDER=
